<svg width="148" height="26" viewBox="0 0 148 26" fill="none" xmlns="http://www.w3.org/2000/svg">
<g clip-path="url(#clip0_118_1085)">
<path d="M0 19.1867C0.695452 19.1345 1.21726 19.0216 1.56544 18.8476C1.91296 18.6739 2.16094 18.3952 2.30904 18.0122C2.45641 17.6296 2.53074 17.0726 2.53074 16.3415V5.06449C2.53074 4.31653 2.45641 3.75087 2.30904 3.3679C2.16102 2.98525 1.90873 2.71125 1.55218 2.54548C1.19563 2.38036 0.678536 2.27139 0 2.21899V1.56665H7.98302C9.00908 1.56665 9.96609 1.73608 10.8531 2.07551C11.7401 2.41495 12.4614 2.94139 13.0184 3.65492C13.5748 4.3687 13.8533 5.26485 13.8533 6.34369C13.8533 7.47502 13.5571 8.42358 12.9663 9.1892C12.3748 9.95514 11.6136 10.5165 10.6835 10.8728C9.75276 11.2296 8.78314 11.4079 7.77465 11.4079H5.00919V16.3417C5.00919 17.1425 5.10044 17.7298 5.28303 18.1037C5.46562 18.4781 5.78296 18.7391 6.2354 18.8869C6.68752 19.0347 7.38329 19.1347 8.32233 19.1868V19.8395H8.13299e-05V19.1868L0 19.1867ZM7.38321 10.5203C8.63529 10.5203 9.59165 10.1679 10.2529 9.46312C10.9137 8.75829 11.244 7.71005 11.244 6.31765C11.244 5.0299 10.9525 4.05539 10.3703 3.39378C9.78741 2.73281 8.86992 2.40201 7.61777 2.40201H5.00903V10.5204H7.38313L7.38321 10.5203Z" fill="#11322C"/>
<path d="M29.692 19.8393H25.6745V18.8997C25.6745 18.4297 25.6914 18.0557 25.7266 17.777C25.7611 17.4991 25.8395 17.1769 25.9616 16.8112L25.805 16.7853C25.5089 17.8292 24.9612 18.6516 24.1611 19.2521C23.3612 19.8523 22.4918 20.1526 21.5524 20.1526C20.3697 20.1526 19.4134 19.7916 18.6827 19.0694C17.9521 18.3474 17.5869 17.316 17.5869 15.9758V9.55433C17.5869 9.18894 17.5258 8.92356 17.4043 8.7582C17.2825 8.59275 17.087 8.48851 16.8175 8.44497C16.5476 8.40143 16.1084 8.37954 15.5 8.37954V7.701L19.2829 7.04834H19.8047V15.3756C19.8047 17.3768 20.7176 18.3776 22.544 18.3776C23.1701 18.3776 23.7612 18.1992 24.3179 17.8426C24.8743 17.4859 25.2656 17.0201 25.492 16.4458V9.55441C25.492 9.18902 25.4309 8.92364 25.3094 8.75828C25.1875 8.59284 24.9917 8.48859 24.7222 8.44505C24.4523 8.40151 24.0135 8.37962 23.4046 8.37962V7.70108L27.1875 7.04842H27.7093V17.8555C27.7093 18.3082 27.8484 18.6171 28.127 18.7822C28.4048 18.948 28.9266 19.0825 29.6921 19.1868V19.8394L29.692 19.8393Z" fill="#11322C"/>
<path d="M39.864 6.83944V9.44975H39.4468C39.1683 9.29334 38.8028 9.21489 38.351 9.21489C37.5331 9.21489 36.851 9.45871 36.3029 9.946C35.7552 10.4332 35.4813 11.1988 35.4813 12.2431V17.3333C35.4813 17.8209 35.5593 18.1862 35.716 18.4297C35.8723 18.6735 36.1337 18.8472 36.4987 18.9518C36.8639 19.0562 37.4202 19.1345 38.1684 19.1867V19.8394H31.0983V19.1867C31.7244 19.1176 32.1811 19.0303 32.4679 18.9256C32.755 18.8213 32.9592 18.6516 33.081 18.4168C33.2025 18.1816 33.2636 17.8209 33.2636 17.3333V9.86755C33.2636 9.43275 33.1723 9.1235 32.9898 8.94089C32.8072 8.75819 32.4895 8.66689 32.0374 8.66689L30.9158 8.71905V8.06639L34.5944 7.04834H35.1942V8.95391C35.1942 10.1025 35.1766 11.0598 35.1421 11.8253H35.2988L35.5073 10.4678C35.6985 9.21489 36.1376 8.2796 36.8247 7.66185C37.5115 7.04435 38.2551 6.73511 39.0554 6.73511C39.403 6.73511 39.6726 6.77034 39.8641 6.83944" fill="#11322C"/>
<path d="M54.8208 19.8392H50.8033V18.8474C50.8033 18.4648 50.8205 18.1253 50.8554 17.8294C50.8903 17.5334 50.9769 17.1857 51.1163 16.7851L50.9859 16.7067C50.6032 17.8384 50.0421 18.6953 49.3033 19.2782C48.5636 19.8612 47.6638 20.1528 46.6032 20.1528C45.5944 20.1528 44.6988 19.8871 43.916 19.3564C43.1333 18.8259 42.5288 18.0995 42.103 17.1768C41.6764 16.2548 41.4636 15.2105 41.4636 14.0443C41.4636 12.6178 41.7418 11.3516 42.2985 10.2462C42.8549 9.14116 43.6333 8.27984 44.6334 7.66177C45.6332 7.04426 46.7595 6.73502 48.0119 6.73502C49.0901 6.73502 49.9594 6.96158 50.6206 7.41397V2.76722C50.6206 2.31483 50.538 1.99298 50.3727 1.80133C50.2073 1.61001 49.9162 1.51439 49.499 1.51439C49.1857 1.51439 48.6552 1.58413 47.9073 1.72329V1.14899L52.1858 0H52.8381V17.8553C52.8381 18.308 52.9772 18.617 53.2557 18.782C53.5336 18.9478 54.0554 19.0823 54.8208 19.1865V19.8392ZM50.6207 8.84942C50.0989 8.11871 49.2119 7.75299 47.9599 7.75299C46.7074 7.75299 45.7116 8.24062 44.9727 9.21481C44.2331 10.19 43.864 11.4951 43.864 13.1305C43.864 14.6969 44.1986 15.9283 44.8682 16.8243C45.5377 17.7208 46.4639 18.1689 47.6469 18.1689C48.2899 18.1689 48.8728 18.0165 49.3946 17.7119C49.9164 17.4076 50.3247 16.9855 50.6208 16.446V8.84942H50.6207Z" fill="#11322C"/>
<path d="M67.063 7.04834H67.5848V19.7873C67.5848 21.7015 67.0932 23.2154 66.1106 24.3294C65.1278 25.4427 63.7668 26.0001 62.028 26.0001C60.7059 26.0001 59.5925 25.7214 58.6886 25.1647C57.7841 24.6074 57.1055 23.7897 56.6538 22.7108L57.4365 22.3454C58.1667 23.7029 59.5842 24.3815 61.6887 24.3815C62.819 24.3815 63.7146 24.0554 64.3759 23.4027C65.0364 22.75 65.367 21.8582 65.367 20.727V19.2131C65.367 18.7783 65.4062 18.3867 65.4846 18.0383C65.5629 17.6905 65.6801 17.2903 65.8367 16.8375L65.6801 16.7854C65.3843 17.7775 64.8452 18.5866 64.0628 19.2131C63.2801 19.8395 62.4017 20.1527 61.4278 20.1527C60.1927 20.1527 59.2234 19.7786 58.519 19.0304C57.8146 18.2824 57.4624 17.2644 57.4624 15.976V9.55449C57.4624 9.20643 57.4143 8.95001 57.319 8.78424C57.2231 8.61912 57.0319 8.51024 56.7451 8.45807C56.458 8.40591 56.0015 8.3797 55.3755 8.3797V7.70116L59.1581 7.0485H59.6799V15.3758C59.6799 16.3679 59.9103 17.1162 60.3713 17.6208C60.8321 18.1257 61.5149 18.3778 62.4192 18.3778C63.0625 18.3778 63.6626 18.1951 64.2193 17.8297C64.7757 17.464 65.1587 17.0033 65.3672 16.4459V9.55449C65.3672 9.20643 65.3191 8.95001 65.2238 8.78424C65.1278 8.61912 64.937 8.51024 64.6499 8.45807C64.3627 8.40591 63.9063 8.3797 63.2803 8.3797V7.70116L67.063 7.04834Z" fill="#11322C"/>
<path d="M94.325 17.751C94.064 18.4126 93.6335 18.9999 93.0337 19.513C92.4335 20.0262 91.69 20.2833 90.803 20.2833C89.6896 20.2833 88.716 19.8047 87.8812 18.8474L85.8201 16.4719C85.3853 17.6205 84.733 18.5432 83.8637 19.239C82.9936 19.9349 81.9762 20.2833 80.8111 20.2833C79.8544 20.2833 78.9631 20.096 78.1373 19.7219C77.3107 19.3479 76.6455 18.7866 76.1413 18.0383C75.6367 17.2899 75.3848 16.3765 75.3848 15.297C75.3848 12.6521 76.8367 10.7117 79.7416 9.47581L79.1939 8.84935C77.9763 7.45728 77.3676 6.2217 77.3676 5.14253C77.3676 3.95944 77.7982 2.99322 78.6589 2.24486C79.5199 1.49682 80.7415 1.12256 82.3246 1.12256C82.9154 1.12256 83.5806 1.17074 84.3202 1.26603C85.0591 1.36198 85.6547 1.49682 86.1071 1.67057V6.1343H85.5335C84.8374 3.33298 83.6461 1.93163 81.9592 1.93163C81.1768 1.93163 80.5722 2.15819 80.1461 2.61058C79.7198 3.06329 79.5071 3.62 79.5071 4.28097C79.5071 4.71643 79.5983 5.14725 79.7809 5.57335C79.9635 5.99986 80.1938 6.36948 80.472 6.68271L88.7163 16.1586C89.4987 17.0461 90.1075 17.6333 90.5423 17.9206C90.9768 18.2076 91.49 18.3511 92.0816 18.3511C92.4118 18.3511 92.7338 18.2644 93.0469 18.0904C93.3599 17.9166 93.6119 17.6901 93.8034 17.4114L94.3252 17.7509L94.325 17.751ZM85.4288 16.0281L80.1591 9.97173C79.3587 10.3029 78.737 10.7639 78.2935 11.3555C77.85 11.9474 77.6283 12.7565 77.6283 13.7832C77.6283 14.6361 77.8109 15.4107 78.176 16.1063C78.5415 16.8028 79.0501 17.3465 79.7023 17.7381C80.3546 18.1293 81.0719 18.3253 81.8546 18.3253C83.3676 18.3253 84.5587 17.5597 85.4287 16.0281" fill="#11322C"/>
<path d="M112.572 1.56641L113.094 6.76125H112.311C111.963 5.21244 111.346 4.10308 110.459 3.43276C109.572 2.76317 108.241 2.42764 106.467 2.42764H103.363V10.0501H105.006C105.824 10.0501 106.458 9.9505 106.911 9.75014C107.363 9.55019 107.693 9.22801 107.902 8.78393C108.111 8.34049 108.258 7.72705 108.345 6.94386H109.024V14.201H108.345C108.258 13.3657 108.106 12.7259 107.889 12.2822C107.671 11.8384 107.337 11.5166 106.885 11.3163C106.432 11.1163 105.806 11.016 105.006 11.016H103.363V16.3413C103.363 17.1421 103.454 17.7337 103.637 18.1163C103.819 18.4993 104.136 18.765 104.589 18.9125C105.041 19.0606 105.737 19.152 106.676 19.1865V19.8391H98.3535V19.1865C99.0321 19.152 99.5492 19.0476 99.906 18.8736C100.262 18.6995 100.514 18.4165 100.663 18.0249C100.81 17.6333 100.884 17.0723 100.884 16.3413V5.06425C100.884 4.31621 100.81 3.74598 100.663 3.35431C100.515 2.96304 100.262 2.68472 99.906 2.51895C99.5492 2.35383 99.032 2.2539 98.3535 2.21907V1.56641H112.572Z" fill="#11322C"/>
<path d="M121.093 19.8393H114.545V19.1866C115.154 19.1345 115.605 19.0561 115.901 18.9519C116.197 18.8472 116.406 18.6735 116.528 18.4297C116.649 18.1862 116.71 17.8206 116.71 17.3333V9.86757C116.71 9.41519 116.619 9.09732 116.436 8.91462C116.254 8.73193 115.936 8.64062 115.484 8.64062C115.223 8.64062 114.884 8.6665 114.467 8.71899V8.06633L118.276 7.04827H118.928V17.3333C118.928 17.8382 118.989 18.2079 119.11 18.4427C119.232 18.6778 119.441 18.8472 119.736 18.9519C120.032 19.0561 120.484 19.1345 121.093 19.1866V19.8393ZM116.423 4.59436C116.093 4.26388 115.928 3.85503 115.928 3.36741C115.928 2.88052 116.093 2.47126 116.423 2.14078C116.754 1.8103 117.162 1.64453 117.65 1.64453C118.136 1.64453 118.545 1.8103 118.876 2.14078C119.206 2.47126 119.371 2.88052 119.371 3.36741C119.371 3.85495 119.206 4.26388 118.876 4.59436C118.545 4.92517 118.136 5.09029 117.65 5.09029C117.162 5.09029 116.754 4.92517 116.423 4.59436Z" fill="#11322C"/>
<path d="M124.925 25.1645C124.021 24.6074 123.342 23.7897 122.89 22.7109L123.673 22.3452C124.038 23.0065 124.556 23.511 125.225 23.8591C125.895 24.2071 126.673 24.3812 127.56 24.3812C128.743 24.3812 129.695 24.0507 130.417 23.3894C131.138 22.7278 131.5 21.8403 131.5 20.7266V19.5522C131.5 19.0822 131.534 18.6646 131.604 18.2993C131.673 17.9335 131.804 17.4291 131.995 16.7849L131.839 16.7066C131.543 17.7508 131.004 18.5862 130.221 19.2127C129.439 19.8391 128.534 20.1527 127.508 20.1527C126.534 20.1527 125.656 19.8956 124.873 19.3824C124.091 18.8692 123.473 18.1601 123.021 17.255C122.568 16.3502 122.343 15.3322 122.343 14.2009C122.343 12.7391 122.625 11.4427 123.19 10.3112C123.755 9.18015 124.551 8.30133 125.577 7.67455C126.603 7.04809 127.777 6.73486 129.099 6.73486C131.064 6.73486 132.604 7.17032 133.717 8.04019V20.1264C133.717 21.2922 133.491 22.3192 133.039 23.2067C132.586 24.0943 131.947 24.7814 131.121 25.2691C130.295 25.7559 129.343 25.9998 128.264 25.9998C126.943 25.9998 125.829 25.7214 124.925 25.1644M130.234 17.8814C130.782 17.5509 131.204 17.0636 131.5 16.4196V9.37139C131.308 8.93658 130.947 8.57957 130.417 8.30117C129.886 8.02285 129.317 7.88337 128.708 7.88337C127.473 7.88337 126.503 8.36237 125.799 9.31922C125.095 10.2765 124.742 11.6078 124.742 13.313C124.742 14.8794 125.056 16.1154 125.682 17.0198C126.308 17.9252 127.16 18.3773 128.239 18.3773C129.021 18.3773 129.686 18.2122 130.234 17.8814Z" fill="#11322C"/>
<path d="M139.11 25.1645C138.206 24.6074 137.527 23.7897 137.075 22.7109L137.858 22.3452C138.223 23.0065 138.74 23.511 139.41 23.8591C140.079 24.2071 140.858 24.3812 141.745 24.3812C142.927 24.3812 143.879 24.0507 144.601 23.3894C145.323 22.7278 145.684 21.8403 145.684 20.7266V19.5522C145.684 19.0822 145.719 18.6646 145.788 18.2993C145.858 17.9335 145.988 17.4291 146.18 16.7849L146.023 16.7066C145.727 17.7508 145.188 18.5862 144.406 19.2127C143.623 19.8391 142.719 20.1527 141.693 20.1527C140.718 20.1527 139.84 19.8956 139.058 19.3824C138.275 18.8692 137.657 18.1601 137.205 17.255C136.753 16.3502 136.527 15.3322 136.527 14.2009C136.527 12.7391 136.81 11.4427 137.375 10.3112C137.94 9.18015 138.736 8.30133 139.762 7.67455C140.788 7.04809 141.962 6.73486 143.284 6.73486C145.249 6.73486 146.788 7.17032 147.902 8.04019V20.1264C147.902 21.2922 147.675 22.3192 147.223 23.2067C146.771 24.0943 146.132 24.7814 145.306 25.2691C144.48 25.7559 143.527 25.9998 142.449 25.9998C141.127 25.9998 140.014 25.7214 139.11 25.1644M144.419 17.8814C144.967 17.5509 145.388 17.0636 145.684 16.4196V9.37139C145.492 8.93658 145.132 8.57957 144.601 8.30117C144.071 8.02285 143.501 7.88337 142.892 7.88337C141.657 7.88337 140.688 8.36237 139.984 9.31922C139.279 10.2765 138.927 11.6078 138.927 13.313C138.927 14.8794 139.24 16.1154 139.867 17.0198C140.493 17.9252 141.345 18.3773 142.423 18.3773C143.206 18.3773 143.871 18.2122 144.419 17.8814Z" fill="#11322C"/>
</g>
<defs>
<clipPath id="clip0_118_1085">
<rect width="147.902" height="26" fill="white"/>
</clipPath>
</defs>
</svg>
